<svg width="58" height="58" viewBox="0 0 58 58" fill="none" xmlns="http://www.w3.org/2000/svg">
<g filter="url(#filter0_d_706_686)">
<rect x="4" width="50" height="50" rx="8" fill="#2405F2"/>
<mask id="mask0_706_686" style="mask-type:alpha" maskUnits="userSpaceOnUse" x="4" y="0" width="50" height="50">
<rect x="4" width="50" height="50" rx="8" fill="#5C5E84"/>
</mask>
<g mask="url(#mask0_706_686)">
<rect x="-22" y="27" width="50" height="50" rx="8" fill="#FCD980"/>
<rect x="12" y="-9" width="50" height="50" rx="8" fill="#5239FA"/>
</g>
<path d="M19.936 24.556C19.936 26.584 20.296 28.174 21.016 29.326C21.736 30.466 22.936 31.036 24.616 31.036C26.296 31.036 27.496 30.46 28.216 29.308C28.936 28.156 29.296 26.572 29.296 24.556C29.296 22.552 28.936 20.98 28.216 19.84C27.496 18.688 26.296 18.112 24.616 18.112C22.936 18.112 21.736 18.682 21.016 19.822C20.296 20.962 19.936 22.54 19.936 24.556ZM27.244 24.556C27.244 26.02 27.064 27.142 26.704 27.922C26.344 28.702 25.648 29.092 24.616 29.092C23.572 29.092 22.87 28.702 22.51 27.922C22.15 27.142 21.97 26.02 21.97 24.556C21.97 23.104 22.15 21.994 22.51 21.226C22.87 20.458 23.572 20.074 24.616 20.074C25.648 20.074 26.344 20.464 26.704 21.244C27.064 22.012 27.244 23.116 27.244 24.556ZM30.4488 20.218V18.292H34.5168V31H32.3568V20.218H30.4488Z" fill="white"/>
</g>
<defs>
<filter id="filter0_d_706_686" x="0" y="0" width="58" height="58" filterUnits="userSpaceOnUse" color-interpolation-filters="sRGB">
<feFlood flood-opacity="0" result="BackgroundImageFix"/>
<feColorMatrix in="SourceAlpha" type="matrix" values="0 0 0 0 0 0 0 0 0 0 0 0 0 0 0 0 0 0 127 0" result="hardAlpha"/>
<feOffset dy="4"/>
<feGaussianBlur stdDeviation="2"/>
<feComposite in2="hardAlpha" operator="out"/>
<feColorMatrix type="matrix" values="0 0 0 0 0 0 0 0 0 0 0 0 0 0 0 0 0 0 0.25 0"/>
<feBlend mode="normal" in2="BackgroundImageFix" result="effect1_dropShadow_706_686"/>
<feBlend mode="normal" in="SourceGraphic" in2="effect1_dropShadow_706_686" result="shape"/>
</filter>
</defs>
</svg>
