<svg width="50" height="50" viewBox="0 0 50 50" fill="none" xmlns="http://www.w3.org/2000/svg">
<rect width="50" height="50" rx="8" fill="#2405F2"/>
<mask id="mask0_1306_478" style="mask-type:alpha" maskUnits="userSpaceOnUse" x="0" y="0" width="50" height="50">
<rect width="50" height="50" rx="8" fill="#5C5E84"/>
</mask>
<g mask="url(#mask0_1306_478)">
<rect x="-26" y="27" width="50" height="50" rx="8" fill="#FCD980"/>
<rect x="8" y="-9" width="50" height="50" rx="8" fill="#5239FA"/>
</g>
<path d="M16.08 24.268C16.08 22.192 16.428 20.572 17.124 19.408C17.832 18.232 19.044 17.644 20.76 17.644C22.476 17.644 23.682 18.232 24.378 19.408C25.086 20.572 25.44 22.192 25.44 24.268C25.44 26.368 25.086 28.012 24.378 29.2C23.682 30.376 22.476 30.964 20.76 30.964C19.044 30.964 17.832 30.376 17.124 29.2C16.428 28.012 16.08 26.368 16.08 24.268ZM23.424 24.268C23.424 23.296 23.358 22.474 23.226 21.802C23.106 21.13 22.854 20.584 22.47 20.164C22.086 19.732 21.516 19.516 20.76 19.516C20.004 19.516 19.434 19.732 19.05 20.164C18.666 20.584 18.408 21.13 18.276 21.802C18.156 22.474 18.096 23.296 18.096 24.268C18.096 25.276 18.156 26.122 18.276 26.806C18.396 27.49 18.648 28.042 19.032 28.462C19.428 28.882 20.004 29.092 20.76 29.092C21.516 29.092 22.086 28.882 22.47 28.462C22.866 28.042 23.124 27.49 23.244 26.806C23.364 26.122 23.424 25.276 23.424 24.268ZM34.6673 20.92C34.5353 20.368 34.2953 19.954 33.9473 19.678C33.5993 19.402 33.1133 19.264 32.4893 19.264C31.5413 19.264 30.8333 19.63 30.3653 20.362C29.8973 21.082 29.6513 22.282 29.6273 23.962C29.9393 23.434 30.3953 23.026 30.9953 22.738C31.5953 22.45 32.2433 22.306 32.9393 22.306C33.7313 22.306 34.4273 22.48 35.0273 22.828C35.6393 23.164 36.1133 23.656 36.4492 24.304C36.7973 24.952 36.9713 25.726 36.9713 26.626C36.9713 27.466 36.8033 28.216 36.4673 28.876C36.1433 29.536 35.6573 30.058 35.0093 30.442C34.3613 30.814 33.5813 31 32.6693 31C31.4333 31 30.4613 30.73 29.7533 30.19C29.0573 29.638 28.5653 28.864 28.2773 27.868C28.0013 26.872 27.8633 25.63 27.8633 24.142C27.8633 19.75 29.4113 17.554 32.5073 17.554C33.7073 17.554 34.6493 17.878 35.3333 18.526C36.0293 19.174 36.4373 19.972 36.5573 20.92H34.6673ZM32.4893 24.034C31.7573 24.034 31.1333 24.256 30.6173 24.7C30.1133 25.132 29.8613 25.762 29.8613 26.59C29.8613 27.418 30.0953 28.078 30.5633 28.57C31.0433 29.05 31.7093 29.29 32.5613 29.29C33.3173 29.29 33.9113 29.056 34.3433 28.588C34.7873 28.12 35.0093 27.496 35.0093 26.716C35.0093 25.9 34.7933 25.252 34.3613 24.772C33.9413 24.28 33.3173 24.034 32.4893 24.034Z" fill="white"/>
</svg>
