<svg width="50" height="42" viewBox="0 0 50 42" fill="none" xmlns="http://www.w3.org/2000/svg">
<rect width="50" height="41.2921" rx="8" fill="#2405F2"/>
<mask id="mask0_1306_489" style="mask-type:alpha" maskUnits="userSpaceOnUse" x="0" y="0" width="50" height="42">
<rect width="50" height="41.2921" rx="8" fill="#5C5E84"/>
</mask>
<g mask="url(#mask0_1306_489)">
<rect x="-26" y="22.2979" width="50" height="41.2921" rx="8" fill="#FCD980"/>
<rect x="8" y="-7.43262" width="50" height="41.2921" rx="8" fill="#5239FA"/>
</g>
<path d="M16.08 22.7006C16.08 20.6246 16.428 19.0046 17.124 17.8406C17.832 16.6646 19.044 16.0766 20.76 16.0766C22.476 16.0766 23.682 16.6646 24.378 17.8406C25.086 19.0046 25.44 20.6246 25.44 22.7006C25.44 24.8006 25.086 26.4446 24.378 27.6326C23.682 28.8086 22.476 29.3966 20.76 29.3966C19.044 29.3966 17.832 28.8086 17.124 27.6326C16.428 26.4446 16.08 24.8006 16.08 22.7006ZM23.424 22.7006C23.424 21.7286 23.358 20.9066 23.226 20.2346C23.106 19.5626 22.854 19.0166 22.47 18.5966C22.086 18.1646 21.516 17.9486 20.76 17.9486C20.004 17.9486 19.434 18.1646 19.05 18.5966C18.666 19.0166 18.408 19.5626 18.276 20.2346C18.156 20.9066 18.096 21.7286 18.096 22.7006C18.096 23.7086 18.156 24.5546 18.276 25.2386C18.396 25.9226 18.648 26.4746 19.032 26.8946C19.428 27.3146 20.004 27.5246 20.76 27.5246C21.516 27.5246 22.086 27.3146 22.47 26.8946C22.866 26.4746 23.124 25.9226 23.244 25.2386C23.364 24.5546 23.424 23.7086 23.424 22.7006ZM36.0713 18.0746H30.0413V21.6566C30.2933 21.3206 30.6653 21.0386 31.1572 20.8106C31.6613 20.5826 32.1953 20.4686 32.7593 20.4686C33.7673 20.4686 34.5833 20.6846 35.2073 21.1166C35.8433 21.5486 36.2933 22.0946 36.5573 22.7546C36.8333 23.4146 36.9713 24.1106 36.9713 24.8426C36.9713 25.7306 36.7973 26.5226 36.4492 27.2186C36.1133 27.9026 35.6033 28.4426 34.9193 28.8386C34.2473 29.2346 33.4193 29.4326 32.4353 29.4326C31.1273 29.4326 30.0773 29.1086 29.2853 28.4606C28.4933 27.8126 28.0193 26.9546 27.8633 25.8866H29.8613C29.9933 26.4506 30.2873 26.9006 30.7433 27.2366C31.1993 27.5606 31.7693 27.7226 32.4533 27.7226C33.3053 27.7226 33.9413 27.4646 34.3613 26.9486C34.7933 26.4326 35.0093 25.7486 35.0093 24.8966C35.0093 24.0326 34.7933 23.3726 34.3613 22.9166C33.9293 22.4486 33.2933 22.2146 32.4533 22.2146C31.8653 22.2146 31.3673 22.3646 30.9593 22.6646C30.5633 22.9526 30.2753 23.3486 30.0953 23.8526H28.1513V16.2746H36.0713V18.0746Z" fill="white"/>
</svg>
